<?xml version="1.0" encoding="utf-8"?>
<!-- Generator: Adobe Illustrator 18.0.0, SVG Export Plug-In . SVG Version: 6.00 Build 0)  -->
<!DOCTYPE svg PUBLIC "-//W3C//DTD SVG 1.1//EN" "http://www.w3.org/Graphics/SVG/1.1/DTD/svg11.dtd">
<svg version="1.1" id="Layer_1" xmlns="http://www.w3.org/2000/svg" xmlns:xlink="http://www.w3.org/1999/xlink" x="0px" y="0px"
	 viewBox="0 0 498.2 463.3" enable-background="new 0 0 498.2 463.3" xml:space="preserve">
<g>
	<g>
		<path fill-rule="evenodd" clip-rule="evenodd" fill="#002066" d="M249.1,126.2l-26.7,26.7l26.7,26.7l26.7-26.7L249.1,126.2
			L249.1,126.2z M249.1,98.2l54.7,54.7l-54.7,54.7l-54.7-54.7L249.1,98.2z"/>
		<path fill-rule="evenodd" clip-rule="evenodd" fill="#002066" d="M176.8,198.4l-26.7,26.7l26.7,26.7l26.7-26.7L176.8,198.4
			L176.8,198.4z M176.8,170.4l54.7,54.7l-54.7,54.7l-54.7-54.7L176.8,170.4z"/>
		<path fill-rule="evenodd" clip-rule="evenodd" fill="#002066" d="M321.4,198.4l-26.7,26.7l26.7,26.7l26.7-26.7L321.4,198.4
			L321.4,198.4z M321.4,170.4l54.7,54.7l-54.7,54.7l-54.7-54.7L321.4,170.4z"/>
	</g>
	<path fill-rule="evenodd" clip-rule="evenodd" fill="#002066" d="M53,333c1.9,0,3.6-0.3,5.1-0.9c1.6-0.6,2.9-1.5,4-2.6
		c1.1-1.1,2-2.4,2.6-3.9c0.6-1.5,0.9-3.2,0.9-5.1v-0.1c0-1.8-0.3-3.5-0.9-5.1c-0.6-1.6-1.5-2.9-2.6-4c-1.1-1.1-2.4-2-4-2.6
		c-1.6-0.6-3.3-0.9-5.1-0.9h-7.1V333H53L53,333z M36.7,299.4H53c3.3,0,6.3,0.5,9,1.6c2.7,1.1,5.1,2.5,7.1,4.4c2,1.9,3.5,4.1,4.6,6.6
		c1.1,2.5,1.6,5.3,1.6,8.2v0.1c0,2.9-0.5,5.7-1.6,8.2c-1.1,2.6-2.6,4.8-4.6,6.6c-2,1.9-4.3,3.3-7.1,4.4c-2.7,1.1-5.7,1.6-9,1.6H36.7
		V299.4L36.7,299.4z M76.3,299.4h9.9l8.7,28.3l9.4-28.5h7.9l9.4,28.5l8.7-28.3h9.6l-14.3,42.1h-8l-9.4-27.4l-9.4,27.4h-8L76.3,299.4
		L76.3,299.4z M184.6,323.8l-5.6-13.6l-5.6,13.6H184.6L184.6,323.8z M175,299.1h8.5l17.9,42.1h-9.6l-3.8-9.4h-17.7l-3.8,9.4H157
		L175,299.1L175,299.1z M220.3,333c1.9,0,3.6-0.3,5.1-0.9c1.6-0.6,2.9-1.5,4-2.6c1.1-1.1,2-2.4,2.6-3.9c0.6-1.5,0.9-3.2,0.9-5.1
		v-0.1c0-1.8-0.3-3.5-0.9-5.1c-0.6-1.6-1.5-2.9-2.6-4c-1.1-1.1-2.4-2-4-2.6c-1.6-0.6-3.3-0.9-5.1-0.9h-7.1V333H220.3L220.3,333z
		 M203.9,299.4h16.3c3.3,0,6.3,0.5,9,1.6c2.7,1.1,5.1,2.5,7.1,4.4c2,1.9,3.5,4.1,4.6,6.6c1.1,2.5,1.6,5.3,1.6,8.2v0.1
		c0,2.9-0.5,5.7-1.6,8.2c-1.1,2.6-2.6,4.8-4.6,6.6c-2,1.9-4.3,3.3-7.1,4.4c-2.7,1.1-5.7,1.6-9,1.6h-16.3V299.4L203.9,299.4z
		 M243.2,299.4h10.2l10.9,29.5l10.9-29.5h9.9l-16.9,42.1h-8.1L243.2,299.4L243.2,299.4z M288.1,299.4h9.2v41.8h-9.2V299.4
		L288.1,299.4z M318.8,341.9c-3.2,0-6.3-0.5-9.4-1.6c-3.1-1.1-5.9-2.8-8.4-5.1l5.4-6.5c1.9,1.6,3.9,2.8,5.9,3.7
		c2,0.9,4.2,1.4,6.6,1.4c1.9,0,3.4-0.3,4.5-1c1.1-0.7,1.6-1.7,1.6-2.9v-0.1c0-0.6-0.1-1.1-0.3-1.6c-0.2-0.5-0.6-0.9-1.3-1.3
		c-0.6-0.4-1.5-0.8-2.6-1.2c-1.1-0.4-2.5-0.8-4.3-1.3c-2.1-0.5-4-1.1-5.8-1.7c-1.7-0.6-3.2-1.4-4.4-2.4c-1.2-0.9-2.1-2.1-2.8-3.5
		c-0.7-1.4-1-3.1-1-5.2v-0.1c0-1.9,0.4-3.6,1.1-5.2c0.7-1.5,1.7-2.9,3-4c1.3-1.1,2.8-2,4.6-2.6c1.8-0.6,3.8-0.9,5.9-0.9
		c3.1,0,5.9,0.5,8.5,1.4c2.6,0.9,4.9,2.2,7.1,3.9l-4.8,6.9c-1.9-1.3-3.7-2.3-5.5-3c-1.8-0.7-3.6-1.1-5.4-1.1c-1.8,0-3.1,0.3-4,1
		c-0.9,0.7-1.3,1.6-1.3,2.6v0.1c0,0.7,0.1,1.3,0.4,1.8c0.3,0.5,0.7,0.9,1.4,1.3c0.7,0.4,1.6,0.8,2.8,1.1c1.2,0.4,2.7,0.8,4.5,1.3
		c2.1,0.6,4,1.2,5.7,1.9c1.7,0.7,3.1,1.5,4.2,2.5c1.1,1,2,2.1,2.6,3.4c0.6,1.3,0.9,2.9,0.9,4.7v0.1c0,2.1-0.4,3.9-1.1,5.5
		c-0.8,1.6-1.8,3-3.1,4.1c-1.3,1.1-3,1.9-4.8,2.5C323.2,341.6,321.1,341.9,318.8,341.9L318.8,341.9z M358.7,333.5
		c1.8,0,3.5-0.3,5.1-1c1.6-0.7,2.9-1.6,4-2.8c1.1-1.2,2-2.6,2.6-4.2c0.6-1.6,0.9-3.3,0.9-5.1v-0.1c0-1.8-0.3-3.5-0.9-5.1
		c-0.6-1.6-1.5-3-2.6-4.2c-1.1-1.2-2.5-2.1-4-2.8c-1.6-0.7-3.2-1-5.1-1c-1.9,0-3.6,0.3-5.1,1c-1.5,0.7-2.8,1.6-3.9,2.8
		c-1.1,1.2-2,2.6-2.6,4.2c-0.6,1.6-0.9,3.3-0.9,5.1v0.1c0,1.8,0.3,3.5,0.9,5.1c0.6,1.6,1.5,3,2.6,4.2c1.1,1.2,2.5,2.1,4,2.8
		C355.1,333.2,356.8,333.5,358.7,333.5L358.7,333.5z M358.6,342c-3.2,0-6.2-0.6-8.9-1.7c-2.7-1.1-5.1-2.7-7-4.6
		c-2-1.9-3.5-4.2-4.6-6.8c-1.1-2.6-1.6-5.4-1.6-8.4v-0.1c0-3,0.6-5.8,1.7-8.4c1.1-2.6,2.7-4.9,4.6-6.9c2-2,4.3-3.5,7.1-4.7
		c2.7-1.1,5.7-1.7,8.9-1.7c3.2,0,6.2,0.6,8.9,1.7c2.7,1.1,5.1,2.7,7,4.6c2,1.9,3.5,4.2,4.6,6.8c1.1,2.6,1.6,5.4,1.6,8.4v0.1
		c0,3-0.6,5.8-1.7,8.4c-1.1,2.6-2.7,4.9-4.6,6.9c-2,2-4.3,3.5-7.1,4.7C364.8,341.4,361.8,342,358.6,342L358.6,342z M403.7,319.8
		c2.3,0,4-0.5,5.2-1.6c1.2-1.1,1.8-2.5,1.8-4.3v-0.1c0-2-0.6-3.5-1.9-4.5c-1.3-1-3-1.5-5.3-1.5h-9.1v12H403.7L403.7,319.8z
		 M385.2,299.4h19.1c5.3,0,9.4,1.4,12.2,4.2c2.4,2.4,3.6,5.6,3.6,9.6v0.1c0,3.4-0.8,6.1-2.5,8.3c-1.7,2.1-3.8,3.7-6.5,4.7l10.2,14.9
		h-10.8l-9-13.4h-0.1h-7.1v13.4h-9.2V299.4L385.2,299.4z M436.2,324.8v16.5h9.2v-16.7l16.1-25.2h-10.5l-10.2,16.8l-10-16.8h-10.8
		L436.2,324.8z"/>
	<path fill-rule="evenodd" clip-rule="evenodd" fill="#002066" d="M128.9,358.6l-1.9-4.5l-1.9,4.5H128.9L128.9,358.6z M126.1,351.7
		h1.8l4.9,11.3h-2.1l-1.1-2.7h-5.3l-1.2,2.7h-2L126.1,351.7L126.1,351.7z M140.7,363.2c-0.8,0-1.6-0.1-2.3-0.4s-1.3-0.7-1.8-1.2
		c-0.5-0.5-0.9-1.1-1.2-1.8c-0.3-0.7-0.4-1.5-0.4-2.3v0c0-0.8,0.1-1.6,0.4-2.3c0.3-0.7,0.7-1.3,1.2-1.8c0.5-0.5,1.1-0.9,1.8-1.3
		c0.7-0.3,1.5-0.5,2.3-0.5c0.5,0,1,0,1.4,0.1c0.4,0.1,0.8,0.2,1.2,0.4c0.4,0.2,0.7,0.3,1,0.6s0.6,0.4,0.9,0.7l-1.3,1.5
		c-0.4-0.4-0.9-0.8-1.4-1c-0.5-0.3-1.1-0.4-1.7-0.4c-0.5,0-1,0.1-1.5,0.3c-0.5,0.2-0.8,0.5-1.2,0.9c-0.3,0.4-0.6,0.8-0.8,1.3
		c-0.2,0.5-0.3,1-0.3,1.5v0c0,0.5,0.1,1.1,0.3,1.6c0.2,0.5,0.4,0.9,0.8,1.3c0.3,0.4,0.7,0.7,1.2,0.9c0.5,0.2,1,0.3,1.5,0.3
		c0.7,0,1.3-0.1,1.8-0.4c0.5-0.3,1-0.6,1.5-1.1l1.3,1.3c-0.3,0.3-0.6,0.6-0.9,0.8c-0.3,0.2-0.7,0.4-1,0.6c-0.4,0.2-0.8,0.3-1.2,0.4
		C141.7,363.2,141.2,363.2,140.7,363.2L140.7,363.2z M153.2,363.2c-0.8,0-1.6-0.1-2.3-0.4c-0.7-0.3-1.3-0.7-1.8-1.2
		c-0.5-0.5-0.9-1.1-1.2-1.8c-0.3-0.7-0.4-1.5-0.4-2.3v0c0-0.8,0.1-1.6,0.4-2.3c0.3-0.7,0.7-1.3,1.2-1.8c0.5-0.5,1.1-0.9,1.8-1.3
		c0.7-0.3,1.5-0.5,2.3-0.5c0.5,0,1,0,1.4,0.1c0.4,0.1,0.8,0.2,1.2,0.4c0.4,0.2,0.7,0.3,1,0.6s0.6,0.4,0.9,0.7l-1.3,1.5
		c-0.4-0.4-0.9-0.8-1.4-1c-0.5-0.3-1.1-0.4-1.7-0.4c-0.5,0-1,0.1-1.5,0.3c-0.5,0.2-0.8,0.5-1.2,0.9c-0.3,0.4-0.6,0.8-0.8,1.3
		c-0.2,0.5-0.3,1-0.3,1.5v0c0,0.5,0.1,1.1,0.3,1.6c0.2,0.5,0.4,0.9,0.8,1.3c0.3,0.4,0.7,0.7,1.2,0.9c0.5,0.2,1,0.3,1.5,0.3
		c0.7,0,1.3-0.1,1.8-0.4c0.5-0.3,1-0.6,1.5-1.1l1.3,1.3c-0.3,0.3-0.6,0.6-0.9,0.8c-0.3,0.2-0.7,0.4-1,0.6c-0.4,0.2-0.8,0.3-1.2,0.4
		C154.2,363.2,153.8,363.2,153.2,363.2L153.2,363.2z M166,361.4c0.6,0,1.1-0.1,1.5-0.3c0.5-0.2,0.9-0.5,1.2-0.9
		c0.3-0.4,0.6-0.8,0.8-1.3c0.2-0.5,0.3-1,0.3-1.5v0c0-0.5-0.1-1.1-0.3-1.6c-0.2-0.5-0.4-0.9-0.8-1.3c-0.3-0.4-0.7-0.6-1.2-0.9
		c-0.5-0.2-1-0.3-1.5-0.3c-0.6,0-1.1,0.1-1.5,0.3c-0.5,0.2-0.9,0.5-1.2,0.9c-0.3,0.4-0.6,0.8-0.8,1.3c-0.2,0.5-0.3,1-0.3,1.5v0
		c0,0.5,0.1,1.1,0.3,1.6c0.2,0.5,0.4,0.9,0.8,1.3c0.3,0.4,0.7,0.6,1.2,0.9C164.9,361.3,165.4,361.4,166,361.4L166,361.4z
		 M165.9,363.2c-0.9,0-1.7-0.2-2.4-0.5c-0.7-0.3-1.3-0.7-1.8-1.2c-0.5-0.5-0.9-1.1-1.2-1.8c-0.3-0.7-0.4-1.4-0.4-2.2v0
		c0-0.8,0.1-1.5,0.4-2.2c0.3-0.7,0.7-1.3,1.2-1.8c0.5-0.5,1.1-1,1.9-1.3c0.7-0.3,1.5-0.5,2.4-0.5c0.9,0,1.7,0.2,2.4,0.5
		c0.7,0.3,1.3,0.7,1.8,1.2c0.5,0.5,0.9,1.1,1.2,1.8c0.3,0.7,0.4,1.4,0.4,2.2v0c0,0.8-0.1,1.5-0.4,2.2c-0.3,0.7-0.7,1.3-1.2,1.8
		c-0.5,0.5-1.1,1-1.9,1.3C167.6,363.1,166.8,363.2,165.9,363.2L165.9,363.2z M179.5,363.2c-0.7,0-1.4-0.1-2-0.3
		c-0.6-0.2-1.1-0.5-1.5-0.9c-0.4-0.4-0.7-0.9-1-1.6c-0.2-0.6-0.3-1.3-0.3-2.1v-6.5h2v6.4c0,1,0.3,1.8,0.8,2.4
		c0.5,0.5,1.2,0.8,2.1,0.8c0.9,0,1.6-0.3,2.1-0.8c0.5-0.5,0.8-1.3,0.8-2.3v-6.5h2v6.4c0,0.8-0.1,1.6-0.3,2.2c-0.2,0.6-0.6,1.2-1,1.6
		c-0.4,0.4-0.9,0.7-1.5,0.9C180.9,363.1,180.3,363.2,179.5,363.2L179.5,363.2z M187.8,351.8h1.8l6,7.8v-7.8h2V363h-1.7l-6.2-8v8h-2
		V351.8L187.8,351.8z M203.9,353.6h-3.6v-1.8h9.1v1.8h-3.6v9.4h-2V353.6L203.9,353.6z M216.2,363.2c-0.9,0-1.7-0.1-2.5-0.4
		c-0.8-0.3-1.5-0.7-2.2-1.4l1.2-1.4c0.5,0.5,1.1,0.8,1.7,1.1c0.6,0.3,1.2,0.4,1.9,0.4c0.6,0,1.1-0.1,1.5-0.4c0.4-0.3,0.5-0.6,0.5-1
		v0c0-0.2,0-0.4-0.1-0.5c-0.1-0.2-0.2-0.3-0.4-0.4c-0.2-0.1-0.4-0.3-0.8-0.4c-0.3-0.1-0.8-0.2-1.3-0.4c-0.6-0.1-1.1-0.3-1.6-0.5
		c-0.5-0.2-0.9-0.4-1.2-0.6c-0.3-0.3-0.6-0.6-0.7-0.9c-0.2-0.4-0.2-0.8-0.2-1.3v0c0-0.5,0.1-0.9,0.3-1.3c0.2-0.4,0.5-0.7,0.8-1
		c0.3-0.3,0.7-0.5,1.2-0.7c0.5-0.2,1-0.2,1.5-0.2c0.8,0,1.6,0.1,2.2,0.4c0.7,0.2,1.3,0.6,1.9,1.1l-1.1,1.5c-0.5-0.4-1-0.7-1.5-0.9
		c-0.5-0.2-1-0.3-1.5-0.3c-0.6,0-1,0.1-1.3,0.4c-0.3,0.3-0.5,0.6-0.5,0.9v0c0,0.2,0,0.4,0.1,0.6c0.1,0.2,0.2,0.3,0.4,0.4
		c0.2,0.1,0.5,0.3,0.8,0.4c0.4,0.1,0.8,0.2,1.3,0.4c0.6,0.1,1.1,0.3,1.6,0.5c0.5,0.2,0.8,0.4,1.1,0.7c0.3,0.3,0.5,0.6,0.7,0.9
		c0.2,0.3,0.2,0.8,0.2,1.2v0c0,0.5-0.1,1-0.3,1.4c-0.2,0.4-0.5,0.8-0.8,1.1c-0.3,0.3-0.8,0.5-1.3,0.7
		C217.3,363.1,216.8,363.2,216.2,363.2L216.2,363.2z M228.5,350.2h1.6v14.9h-1.6V350.2L228.5,350.2z M241.6,353.6h-3.6v-1.8h9.1v1.8
		h-3.6v9.4h-2V353.6L241.6,353.6z M256.8,358.6l-1.9-4.5l-1.9,4.5H256.8L256.8,358.6z M254,351.7h1.8l4.9,11.3h-2.1l-1.1-2.7h-5.3
		L251,363h-2L254,351.7L254,351.7z M266.6,357.3l-3.9-5.5h2.3l2.8,4l2.8-4h2.3l-3.9,5.5l4.1,5.8h-2.3l-3-4.3l-3,4.3h-2.3
		L266.6,357.3L266.6,357.3z M281,350.2h1.6v14.9H281V350.2L281,350.2z M296.6,361.3c0.7,0,1.2-0.1,1.6-0.4c0.4-0.3,0.6-0.6,0.6-1.2
		v0c0-0.5-0.2-0.9-0.6-1.1c-0.4-0.3-1-0.4-1.7-0.4h-3.1v3.1H296.6L296.6,361.3z M296.1,356.5c0.6,0,1.2-0.1,1.5-0.4
		c0.4-0.3,0.6-0.6,0.6-1.1v0c0-0.4-0.2-0.8-0.5-1.1c-0.3-0.3-0.8-0.4-1.5-0.4h-2.8v3H296.1L296.1,356.5z M291.4,351.8h5
		c1.3,0,2.3,0.3,2.9,1c0.5,0.5,0.8,1.1,0.8,1.9v0c0,0.3,0,0.6-0.1,0.9c-0.1,0.3-0.2,0.5-0.3,0.7c-0.1,0.2-0.3,0.4-0.5,0.5
		c-0.2,0.1-0.4,0.3-0.6,0.4c0.3,0.1,0.6,0.3,0.9,0.4c0.3,0.2,0.5,0.3,0.7,0.6c0.2,0.2,0.4,0.5,0.5,0.8c0.1,0.3,0.2,0.6,0.2,1v0
		c0,0.5-0.1,0.9-0.3,1.3c-0.2,0.4-0.5,0.7-0.8,1c-0.4,0.3-0.8,0.5-1.3,0.6c-0.5,0.1-1.1,0.2-1.7,0.2h-5.2V351.8L291.4,351.8z
		 M308.3,363.2c-0.7,0-1.4-0.1-2-0.3c-0.6-0.2-1.1-0.5-1.5-0.9c-0.4-0.4-0.7-0.9-1-1.6c-0.2-0.6-0.3-1.3-0.3-2.1v-6.5h2v6.4
		c0,1,0.3,1.8,0.8,2.4c0.5,0.5,1.2,0.8,2.1,0.8c0.9,0,1.6-0.3,2.1-0.8c0.5-0.5,0.8-1.3,0.8-2.3v-6.5h2v6.4c0,0.8-0.1,1.6-0.3,2.2
		c-0.2,0.6-0.6,1.2-1,1.6c-0.4,0.4-0.9,0.7-1.5,0.9C309.7,363.1,309.1,363.2,308.3,363.2L308.3,363.2z M320.5,363.2
		c-0.9,0-1.7-0.1-2.5-0.4c-0.8-0.3-1.5-0.7-2.2-1.4l1.2-1.4c0.5,0.5,1.1,0.8,1.7,1.1c0.6,0.3,1.2,0.4,1.9,0.4c0.6,0,1.1-0.1,1.5-0.4
		c0.4-0.3,0.5-0.6,0.5-1v0c0-0.2,0-0.4-0.1-0.5c-0.1-0.2-0.2-0.3-0.4-0.4c-0.2-0.1-0.4-0.3-0.8-0.4c-0.3-0.1-0.8-0.2-1.3-0.4
		c-0.6-0.1-1.1-0.3-1.6-0.5c-0.5-0.2-0.9-0.4-1.2-0.6c-0.3-0.3-0.6-0.6-0.7-0.9c-0.2-0.4-0.2-0.8-0.2-1.3v0c0-0.5,0.1-0.9,0.3-1.3
		c0.2-0.4,0.5-0.7,0.8-1c0.3-0.3,0.7-0.5,1.2-0.7c0.5-0.2,1-0.2,1.5-0.2c0.8,0,1.6,0.1,2.2,0.4c0.7,0.2,1.3,0.6,1.9,1.1l-1.1,1.5
		c-0.5-0.4-1-0.7-1.5-0.9c-0.5-0.2-1-0.3-1.5-0.3c-0.6,0-1,0.1-1.3,0.4c-0.3,0.3-0.5,0.6-0.5,0.9v0c0,0.2,0,0.4,0.1,0.6
		c0.1,0.2,0.2,0.3,0.4,0.4c0.2,0.1,0.5,0.3,0.8,0.4c0.4,0.1,0.8,0.2,1.3,0.4c0.6,0.1,1.1,0.3,1.6,0.5c0.5,0.2,0.8,0.4,1.1,0.7
		c0.3,0.3,0.5,0.6,0.7,0.9c0.2,0.3,0.2,0.8,0.2,1.2v0c0,0.5-0.1,1-0.3,1.4c-0.2,0.4-0.5,0.8-0.8,1.1c-0.3,0.3-0.8,0.5-1.3,0.7
		C321.6,363.1,321.1,363.2,320.5,363.2L320.5,363.2z M327.7,351.8h2V363h-2V351.8L327.7,351.8z M333.3,351.8h1.8l6,7.8v-7.8h2V363
		h-1.7l-6.2-8v8h-2V351.8L333.3,351.8z M346.7,351.8h8.3v1.8h-6.4v2.9h5.6v1.8h-5.6v3h6.4v1.8h-8.4V351.8L346.7,351.8z M362.1,363.2
		c-0.9,0-1.7-0.1-2.5-0.4c-0.8-0.3-1.5-0.7-2.2-1.4l1.2-1.4c0.5,0.5,1.1,0.8,1.7,1.1c0.6,0.3,1.2,0.4,1.9,0.4c0.6,0,1.1-0.1,1.5-0.4
		c0.4-0.3,0.5-0.6,0.5-1v0c0-0.2,0-0.4-0.1-0.5c-0.1-0.2-0.2-0.3-0.4-0.4c-0.2-0.1-0.4-0.3-0.8-0.4c-0.3-0.1-0.8-0.2-1.3-0.4
		c-0.6-0.1-1.1-0.3-1.6-0.5c-0.5-0.2-0.9-0.4-1.2-0.6c-0.3-0.3-0.6-0.6-0.7-0.9c-0.2-0.4-0.2-0.8-0.2-1.3v0c0-0.5,0.1-0.9,0.3-1.3
		c0.2-0.4,0.5-0.7,0.8-1c0.3-0.3,0.7-0.5,1.2-0.7c0.5-0.2,1-0.2,1.5-0.2c0.8,0,1.6,0.1,2.2,0.4c0.7,0.2,1.3,0.6,1.9,1.1l-1.1,1.5
		c-0.5-0.4-1-0.7-1.5-0.9c-0.5-0.2-1-0.3-1.5-0.3c-0.6,0-1,0.1-1.3,0.4c-0.3,0.3-0.5,0.6-0.5,0.9v0c0,0.2,0,0.4,0.1,0.6
		c0.1,0.2,0.2,0.3,0.4,0.4c0.2,0.1,0.5,0.3,0.8,0.4c0.4,0.1,0.8,0.2,1.3,0.4c0.6,0.1,1.1,0.3,1.6,0.5c0.5,0.2,0.8,0.4,1.1,0.7
		c0.3,0.3,0.5,0.6,0.7,0.9c0.2,0.3,0.2,0.8,0.2,1.2v0c0,0.5-0.1,1-0.3,1.4c-0.2,0.4-0.5,0.8-0.8,1.1c-0.3,0.3-0.8,0.5-1.3,0.7
		C363.2,363.1,362.7,363.2,362.1,363.2L362.1,363.2z M373.1,363.2c-0.9,0-1.7-0.1-2.5-0.4c-0.8-0.3-1.5-0.7-2.2-1.4l1.2-1.4
		c0.5,0.5,1.1,0.8,1.7,1.1c0.6,0.3,1.2,0.4,1.9,0.4c0.6,0,1.1-0.1,1.5-0.4c0.4-0.3,0.5-0.6,0.5-1v0c0-0.2,0-0.4-0.1-0.5
		c-0.1-0.2-0.2-0.3-0.4-0.4c-0.2-0.1-0.4-0.3-0.8-0.4c-0.3-0.1-0.8-0.2-1.3-0.4c-0.6-0.1-1.1-0.3-1.6-0.5c-0.5-0.2-0.9-0.4-1.2-0.6
		c-0.3-0.3-0.6-0.6-0.7-0.9c-0.2-0.4-0.2-0.8-0.2-1.3v0c0-0.5,0.1-0.9,0.3-1.3c0.2-0.4,0.5-0.7,0.8-1c0.3-0.3,0.7-0.5,1.2-0.7
		c0.5-0.2,1-0.2,1.5-0.2c0.8,0,1.6,0.1,2.2,0.4c0.7,0.2,1.3,0.6,1.9,1.1l-1.1,1.5c-0.5-0.4-1-0.7-1.5-0.9c-0.5-0.2-1-0.3-1.5-0.3
		c-0.6,0-1,0.1-1.3,0.4c-0.3,0.3-0.5,0.6-0.5,0.9v0c0,0.2,0,0.4,0.1,0.6c0.1,0.2,0.2,0.3,0.4,0.4c0.2,0.1,0.5,0.3,0.8,0.4
		c0.4,0.1,0.8,0.2,1.3,0.4c0.6,0.1,1.1,0.3,1.6,0.5c0.5,0.2,0.8,0.4,1.1,0.7c0.3,0.3,0.5,0.6,0.7,0.9c0.2,0.3,0.2,0.8,0.2,1.2v0
		c0,0.5-0.1,1-0.3,1.4c-0.2,0.4-0.5,0.8-0.8,1.1c-0.3,0.3-0.8,0.5-1.3,0.7C374.2,363.1,373.7,363.2,373.1,363.2z"/>
</g>
</svg>
