<?xml version="1.0" encoding="utf-8"?>
<!-- Generator: Adobe Illustrator 18.0.0, SVG Export Plug-In . SVG Version: 6.00 Build 0)  -->
<!DOCTYPE svg PUBLIC "-//W3C//DTD SVG 1.1//EN" "http://www.w3.org/Graphics/SVG/1.1/DTD/svg11.dtd">
<svg version="1.1" id="Layer_1" xmlns="http://www.w3.org/2000/svg" xmlns:xlink="http://www.w3.org/1999/xlink" x="0px" y="0px"
	 viewBox="0 0 498 463.1" enable-background="new 0 0 498 463.1" xml:space="preserve">
<rect x="0" y="0" fill-rule="evenodd" clip-rule="evenodd" fill="#002066" width="498" height="463.1"/>
<g>
	<g>
		<path fill-rule="evenodd" clip-rule="evenodd" fill="#FFFFFF" d="M249,126.1l-26.7,26.7l26.7,26.7l26.7-26.7L249,126.1L249,126.1z
			 M249,98.1l54.7,54.7L249,207.4l-54.7-54.7L249,98.1z"/>
		<path fill-rule="evenodd" clip-rule="evenodd" fill="#FFFFFF" d="M176.7,198.3L150,224.9l26.7,26.7l26.7-26.7L176.7,198.3
			L176.7,198.3z M176.7,170.3l54.7,54.7l-54.7,54.7L122,224.9L176.7,170.3z"/>
		<path fill-rule="evenodd" clip-rule="evenodd" fill="#0088A8" d="M321.3,198.3l-26.7,26.7l26.7,26.7l26.7-26.7L321.3,198.3
			L321.3,198.3z M321.3,170.3l54.7,54.7l-54.7,54.7l-54.7-54.7L321.3,170.3z"/>
	</g>
	<g>
		<path fill-rule="evenodd" clip-rule="evenodd" fill="#FFFFFF" d="M52.9,332.9c1.9,0,3.6-0.3,5.1-0.9c1.6-0.6,2.9-1.5,4-2.6
			c1.1-1.1,2-2.4,2.6-3.9c0.6-1.5,0.9-3.2,0.9-5.1v-0.1c0-1.8-0.3-3.5-0.9-5.1c-0.6-1.6-1.5-2.9-2.6-4c-1.1-1.1-2.4-2-4-2.6
			c-1.6-0.6-3.3-0.9-5.1-0.9h-7.1v25.2H52.9L52.9,332.9z M36.6,299.3h16.3c3.3,0,6.3,0.5,9,1.6c2.7,1.1,5.1,2.5,7.1,4.4
			c2,1.9,3.5,4.1,4.6,6.6c1.1,2.5,1.6,5.3,1.6,8.2v0.1c0,2.9-0.5,5.7-1.6,8.2c-1.1,2.6-2.6,4.8-4.6,6.6c-2,1.9-4.3,3.3-7.1,4.4
			c-2.7,1.1-5.7,1.6-9,1.6H36.6V299.3L36.6,299.3z M76.2,299.3H86l8.7,28.3l9.4-28.5h7.9l9.4,28.5l8.7-28.3h9.6l-14.3,42.1h-8
			l-9.4-27.4l-9.4,27.4h-8L76.2,299.3z"/>
		<path fill-rule="evenodd" clip-rule="evenodd" fill="#FFFFFF" d="M184.5,323.7l-5.6-13.6l-5.6,13.6H184.5L184.5,323.7z M174.9,299
			h8.5l17.9,42.1h-9.6l-3.8-9.4h-17.7l-3.8,9.4h-9.4L174.9,299L174.9,299z M220.1,332.9c1.9,0,3.6-0.3,5.1-0.9
			c1.6-0.6,2.9-1.5,4-2.6c1.1-1.1,2-2.4,2.6-3.9c0.6-1.5,0.9-3.2,0.9-5.1v-0.1c0-1.8-0.3-3.5-0.9-5.1c-0.6-1.6-1.5-2.9-2.6-4
			c-1.1-1.1-2.4-2-4-2.6c-1.6-0.6-3.3-0.9-5.1-0.9H213v25.2H220.1L220.1,332.9z M203.8,299.3h16.3c3.3,0,6.3,0.5,9,1.6
			c2.7,1.1,5.1,2.5,7.1,4.4c2,1.9,3.5,4.1,4.6,6.6c1.1,2.5,1.6,5.3,1.6,8.2v0.1c0,2.9-0.5,5.7-1.6,8.2s-2.6,4.8-4.6,6.6
			c-2,1.9-4.3,3.3-7.1,4.4c-2.7,1.1-5.7,1.6-9,1.6h-16.3V299.3L203.8,299.3z M243.1,299.3h10.2l10.9,29.5l10.9-29.5h9.9l-16.9,42.1
			H260L243.1,299.3L243.1,299.3z M288,299.3h9.2v41.8H288V299.3L288,299.3z M318.7,341.8c-3.2,0-6.3-0.5-9.4-1.6
			c-3.1-1.1-5.9-2.8-8.4-5.1l5.4-6.5c1.9,1.6,3.9,2.8,5.9,3.7c2,0.9,4.2,1.4,6.6,1.4c1.9,0,3.4-0.3,4.5-1c1.1-0.7,1.6-1.7,1.6-2.9
			v-0.1c0-0.6-0.1-1.1-0.3-1.6c-0.2-0.5-0.6-0.9-1.3-1.3c-0.6-0.4-1.5-0.8-2.6-1.2c-1.1-0.4-2.5-0.8-4.3-1.3c-2.1-0.5-4-1.1-5.8-1.7
			c-1.7-0.6-3.2-1.4-4.4-2.4c-1.2-0.9-2.1-2.1-2.8-3.5c-0.7-1.4-1-3.1-1-5.2v-0.1c0-1.9,0.4-3.6,1.1-5.2c0.7-1.5,1.7-2.9,3-4
			c1.3-1.1,2.8-2,4.6-2.6c1.8-0.6,3.8-0.9,5.9-0.9c3.1,0,5.9,0.5,8.5,1.4c2.6,0.9,4.9,2.2,7.1,3.9l-4.8,6.9c-1.9-1.3-3.7-2.3-5.5-3
			c-1.8-0.7-3.6-1.1-5.4-1.1c-1.8,0-3.1,0.3-4,1c-0.9,0.7-1.3,1.6-1.3,2.6v0.1c0,0.7,0.1,1.3,0.4,1.8c0.3,0.5,0.7,0.9,1.4,1.3
			c0.7,0.4,1.6,0.8,2.8,1.1c1.2,0.4,2.7,0.8,4.5,1.3c2.1,0.6,4,1.2,5.7,1.9c1.7,0.7,3.1,1.5,4.2,2.5c1.1,1,2,2.1,2.6,3.4
			c0.6,1.3,0.9,2.9,0.9,4.7v0.1c0,2.1-0.4,3.9-1.1,5.5c-0.8,1.6-1.8,3-3.1,4.1c-1.3,1.1-3,1.9-4.8,2.5
			C323.1,341.5,321,341.8,318.7,341.8L318.7,341.8z M358.6,333.4c1.8,0,3.5-0.3,5.1-1c1.6-0.7,2.9-1.6,4-2.8c1.1-1.2,2-2.6,2.6-4.2
			c0.6-1.6,0.9-3.3,0.9-5.1v-0.1c0-1.8-0.3-3.5-0.9-5.1c-0.6-1.6-1.5-3-2.6-4.2c-1.1-1.2-2.5-2.1-4-2.8c-1.6-0.7-3.2-1-5.1-1
			c-1.9,0-3.6,0.3-5.1,1c-1.5,0.7-2.8,1.6-3.9,2.8c-1.1,1.2-2,2.6-2.6,4.2c-0.6,1.6-0.9,3.3-0.9,5.1v0.1c0,1.8,0.3,3.5,0.9,5.1
			c0.6,1.6,1.5,3,2.6,4.2c1.1,1.2,2.5,2.1,4,2.8C355,333.1,356.7,333.4,358.6,333.4L358.6,333.4z M358.5,341.9
			c-3.2,0-6.2-0.6-8.9-1.7c-2.7-1.1-5.1-2.7-7-4.6c-2-1.9-3.5-4.2-4.6-6.8c-1.1-2.6-1.6-5.4-1.6-8.4v-0.1c0-3,0.6-5.8,1.7-8.4
			c1.1-2.6,2.7-4.9,4.6-6.9c2-2,4.3-3.5,7.1-4.7c2.7-1.1,5.7-1.7,8.9-1.7c3.2,0,6.2,0.6,8.9,1.7c2.7,1.1,5.1,2.7,7,4.6
			c2,1.9,3.5,4.2,4.6,6.8c1.1,2.6,1.6,5.4,1.6,8.4v0.1c0,3-0.6,5.8-1.7,8.4c-1.1,2.6-2.7,4.9-4.6,6.9c-2,2-4.3,3.5-7.1,4.7
			C364.7,341.3,361.7,341.9,358.5,341.9L358.5,341.9z M403.6,319.7c2.3,0,4-0.5,5.2-1.6c1.2-1.1,1.8-2.5,1.8-4.3v-0.1
			c0-2-0.6-3.5-1.9-4.5c-1.3-1-3-1.5-5.3-1.5h-9.1v12H403.6L403.6,319.7z M385,299.3h19.1c5.3,0,9.4,1.4,12.2,4.2
			c2.4,2.4,3.6,5.6,3.6,9.6v0.1c0,3.4-0.8,6.1-2.5,8.3c-1.7,2.1-3.8,3.7-6.5,4.7l10.2,14.9h-10.8l-9-13.4h-0.1h-7.1v13.4H385V299.3
			L385,299.3z M436.1,324.7v16.5h9.2v-16.7l16.1-25.2H451l-10.2,16.8l-10-16.8h-10.8L436.1,324.7z"/>
	</g>
	<path fill-rule="evenodd" clip-rule="evenodd" fill="#FFFFFF" d="M128.8,358.5l-1.9-4.5l-1.9,4.5H128.8L128.8,358.5z M125.9,351.6
		h1.8l4.9,11.3h-2.1l-1.1-2.7h-5.3l-1.2,2.7h-2L125.9,351.6L125.9,351.6z M140.6,363.1c-0.8,0-1.6-0.2-2.3-0.4
		c-0.7-0.3-1.3-0.7-1.8-1.2c-0.5-0.5-0.9-1.1-1.2-1.8c-0.3-0.7-0.4-1.5-0.4-2.3v0c0-0.8,0.1-1.6,0.4-2.3c0.3-0.7,0.7-1.3,1.2-1.8
		c0.5-0.5,1.1-0.9,1.8-1.3c0.7-0.3,1.5-0.5,2.3-0.5c0.5,0,1,0,1.4,0.1c0.4,0.1,0.8,0.2,1.2,0.4c0.4,0.2,0.7,0.3,1,0.6
		c0.3,0.2,0.6,0.4,0.9,0.7l-1.3,1.5c-0.4-0.4-0.9-0.8-1.4-1c-0.5-0.3-1.1-0.4-1.7-0.4c-0.5,0-1,0.1-1.5,0.3
		c-0.5,0.2-0.8,0.5-1.2,0.9c-0.3,0.4-0.6,0.8-0.8,1.3c-0.2,0.5-0.3,1-0.3,1.5v0c0,0.5,0.1,1.1,0.3,1.6c0.2,0.5,0.4,0.9,0.8,1.3
		c0.3,0.4,0.7,0.7,1.2,0.9c0.5,0.2,1,0.3,1.5,0.3c0.7,0,1.3-0.1,1.8-0.4c0.5-0.3,1-0.6,1.5-1.1l1.3,1.3c-0.3,0.3-0.6,0.6-0.9,0.8
		c-0.3,0.2-0.7,0.4-1,0.6c-0.4,0.2-0.8,0.3-1.2,0.4C141.6,363.1,141.1,363.1,140.6,363.1L140.6,363.1z M153.1,363.1
		c-0.8,0-1.6-0.2-2.3-0.4c-0.7-0.3-1.3-0.7-1.8-1.2c-0.5-0.5-0.9-1.1-1.2-1.8c-0.3-0.7-0.4-1.5-0.4-2.3v0c0-0.8,0.1-1.6,0.4-2.3
		c0.3-0.7,0.7-1.3,1.2-1.8c0.5-0.5,1.1-0.9,1.8-1.3c0.7-0.3,1.5-0.5,2.3-0.5c0.5,0,1,0,1.4,0.1c0.4,0.1,0.8,0.2,1.2,0.4
		c0.4,0.2,0.7,0.3,1,0.6c0.3,0.2,0.6,0.4,0.9,0.7l-1.3,1.5c-0.4-0.4-0.9-0.8-1.4-1c-0.5-0.3-1.1-0.4-1.7-0.4c-0.5,0-1,0.1-1.5,0.3
		c-0.5,0.2-0.8,0.5-1.2,0.9c-0.3,0.4-0.6,0.8-0.8,1.3c-0.2,0.5-0.3,1-0.3,1.5v0c0,0.5,0.1,1.1,0.3,1.6c0.2,0.5,0.4,0.9,0.8,1.3
		c0.3,0.4,0.7,0.7,1.2,0.9c0.5,0.2,1,0.3,1.5,0.3c0.7,0,1.3-0.1,1.8-0.4c0.5-0.3,1-0.6,1.5-1.1l1.3,1.3c-0.3,0.3-0.6,0.6-0.9,0.8
		c-0.3,0.2-0.7,0.4-1,0.6c-0.4,0.2-0.8,0.3-1.2,0.4C154.1,363.1,153.7,363.1,153.1,363.1L153.1,363.1z M165.8,361.3
		c0.6,0,1.1-0.1,1.5-0.3c0.5-0.2,0.9-0.5,1.2-0.9c0.3-0.4,0.6-0.8,0.8-1.3c0.2-0.5,0.3-1,0.3-1.5v0c0-0.5-0.1-1.1-0.3-1.6
		c-0.2-0.5-0.4-0.9-0.8-1.3c-0.3-0.4-0.7-0.6-1.2-0.9c-0.5-0.2-1-0.3-1.5-0.3c-0.6,0-1.1,0.1-1.5,0.3c-0.5,0.2-0.9,0.5-1.2,0.9
		c-0.3,0.4-0.6,0.8-0.8,1.3c-0.2,0.5-0.3,1-0.3,1.5v0c0,0.5,0.1,1.1,0.3,1.6c0.2,0.5,0.4,0.9,0.8,1.3c0.3,0.4,0.7,0.6,1.2,0.9
		C164.8,361.2,165.3,361.3,165.8,361.3L165.8,361.3z M165.8,363.1c-0.9,0-1.7-0.2-2.4-0.5c-0.7-0.3-1.3-0.7-1.8-1.2
		c-0.5-0.5-0.9-1.1-1.2-1.8c-0.3-0.7-0.4-1.4-0.4-2.2v0c0-0.8,0.1-1.5,0.4-2.2c0.3-0.7,0.7-1.3,1.2-1.8c0.5-0.5,1.1-1,1.9-1.3
		c0.7-0.3,1.5-0.5,2.4-0.5c0.9,0,1.7,0.2,2.4,0.5c0.7,0.3,1.3,0.7,1.8,1.2c0.5,0.5,0.9,1.1,1.2,1.8c0.3,0.7,0.4,1.4,0.4,2.2v0
		c0,0.8-0.1,1.5-0.4,2.2c-0.3,0.7-0.7,1.3-1.2,1.8c-0.5,0.5-1.1,1-1.9,1.3C167.5,363,166.7,363.1,165.8,363.1L165.8,363.1z
		 M179.4,363.1c-0.7,0-1.4-0.1-2-0.3c-0.6-0.2-1.1-0.5-1.5-0.9c-0.4-0.4-0.7-0.9-1-1.6c-0.2-0.6-0.3-1.3-0.3-2.1v-6.5h2v6.4
		c0,1.1,0.3,1.8,0.8,2.4c0.5,0.5,1.2,0.8,2.1,0.8c0.9,0,1.6-0.3,2.1-0.8c0.5-0.5,0.8-1.3,0.8-2.3v-6.5h2v6.4c0,0.8-0.1,1.6-0.3,2.2
		c-0.2,0.6-0.6,1.2-1,1.6c-0.4,0.4-0.9,0.7-1.5,0.9C180.8,363,180.1,363.1,179.4,363.1L179.4,363.1z M187.6,351.7h1.8l6,7.8v-7.8h2
		v11.2h-1.7l-6.2-8v8h-2V351.7L187.6,351.7z M203.8,353.5h-3.6v-1.8h9.1v1.8h-3.6v9.4h-2V353.5L203.8,353.5z M216.1,363.1
		c-0.9,0-1.7-0.1-2.5-0.4c-0.8-0.3-1.5-0.7-2.2-1.4l1.2-1.4c0.5,0.5,1.1,0.8,1.7,1.1c0.6,0.3,1.2,0.4,1.9,0.4c0.6,0,1.1-0.1,1.5-0.4
		c0.4-0.3,0.5-0.6,0.5-1v0c0-0.2,0-0.4-0.1-0.5c-0.1-0.2-0.2-0.3-0.4-0.4c-0.2-0.1-0.4-0.3-0.8-0.4c-0.3-0.1-0.8-0.2-1.3-0.4
		c-0.6-0.1-1.1-0.3-1.6-0.5c-0.5-0.2-0.9-0.4-1.2-0.6c-0.3-0.3-0.6-0.6-0.7-0.9c-0.2-0.4-0.2-0.8-0.2-1.3v0c0-0.5,0.1-0.9,0.3-1.3
		c0.2-0.4,0.5-0.7,0.8-1c0.3-0.3,0.7-0.5,1.2-0.7c0.5-0.2,1-0.2,1.5-0.2c0.8,0,1.6,0.1,2.2,0.4c0.7,0.2,1.3,0.6,1.9,1.1l-1.1,1.5
		c-0.5-0.4-1-0.7-1.5-0.9c-0.5-0.2-1-0.3-1.5-0.3c-0.6,0-1,0.1-1.3,0.4c-0.3,0.3-0.5,0.6-0.5,0.9v0c0,0.2,0,0.4,0.1,0.6
		c0.1,0.2,0.2,0.3,0.4,0.5c0.2,0.1,0.5,0.3,0.8,0.4c0.4,0.1,0.8,0.2,1.3,0.4c0.6,0.2,1.1,0.3,1.6,0.5c0.5,0.2,0.8,0.4,1.1,0.7
		c0.3,0.3,0.5,0.6,0.7,0.9c0.2,0.3,0.2,0.8,0.2,1.2v0c0,0.5-0.1,1-0.3,1.4c-0.2,0.4-0.5,0.8-0.8,1.1c-0.3,0.3-0.8,0.5-1.3,0.7
		C217.2,363,216.7,363.1,216.1,363.1L216.1,363.1z M228.4,350.1h1.6V365h-1.6V350.1L228.4,350.1z M241.5,353.5H238v-1.8h9.1v1.8
		h-3.6v9.4h-2V353.5L241.5,353.5z M256.7,358.5l-1.9-4.5l-1.9,4.5H256.7L256.7,358.5z M253.8,351.6h1.8l4.9,11.3h-2.1l-1.1-2.7h-5.3
		l-1.2,2.7h-2L253.8,351.6L253.8,351.6z M266.5,357.2l-3.9-5.5h2.3l2.8,4l2.8-4h2.3l-3.9,5.5l4.1,5.8h-2.3l-3-4.3l-3,4.3h-2.3
		L266.5,357.2L266.5,357.2z M280.9,350.1h1.6V365h-1.6V350.1L280.9,350.1z M296.5,361.2c0.7,0,1.2-0.1,1.6-0.4
		c0.4-0.3,0.6-0.6,0.6-1.2v0c0-0.5-0.2-0.9-0.6-1.1c-0.4-0.3-1-0.4-1.7-0.4h-3.1v3.1H296.5L296.5,361.2z M296,356.4
		c0.6,0,1.2-0.1,1.5-0.4c0.4-0.3,0.6-0.6,0.6-1.1v0c0-0.5-0.2-0.8-0.5-1.1c-0.3-0.3-0.8-0.4-1.5-0.4h-2.8v3H296L296,356.4z
		 M291.3,351.7h5c1.3,0,2.3,0.3,2.9,1c0.5,0.5,0.8,1.1,0.8,1.9v0c0,0.3,0,0.6-0.1,0.9c-0.1,0.3-0.2,0.5-0.3,0.7
		c-0.1,0.2-0.3,0.4-0.5,0.5c-0.2,0.2-0.4,0.3-0.6,0.4c0.3,0.1,0.6,0.3,0.9,0.4c0.3,0.2,0.5,0.3,0.7,0.6c0.2,0.2,0.4,0.5,0.5,0.8
		c0.1,0.3,0.2,0.6,0.2,1v0c0,0.5-0.1,0.9-0.3,1.3c-0.2,0.4-0.5,0.7-0.8,1c-0.4,0.3-0.8,0.5-1.3,0.6c-0.5,0.1-1.1,0.2-1.7,0.2h-5.2
		V351.7L291.3,351.7z M308.2,363.1c-0.7,0-1.4-0.1-2-0.3c-0.6-0.2-1.1-0.5-1.5-0.9c-0.4-0.4-0.7-0.9-1-1.6c-0.2-0.6-0.3-1.3-0.3-2.1
		v-6.5h2v6.4c0,1.1,0.3,1.8,0.8,2.4c0.5,0.5,1.2,0.8,2.1,0.8c0.9,0,1.6-0.3,2.1-0.8c0.5-0.5,0.8-1.3,0.8-2.3v-6.5h2v6.4
		c0,0.8-0.1,1.6-0.3,2.2c-0.2,0.6-0.6,1.2-1,1.6c-0.4,0.4-0.9,0.7-1.5,0.9C309.6,363,308.9,363.1,308.2,363.1L308.2,363.1z
		 M320.4,363.1c-0.9,0-1.7-0.1-2.5-0.4c-0.8-0.3-1.5-0.7-2.2-1.4l1.2-1.4c0.5,0.5,1.1,0.8,1.7,1.1c0.6,0.3,1.2,0.4,1.9,0.4
		c0.6,0,1.1-0.1,1.5-0.4c0.4-0.3,0.5-0.6,0.5-1v0c0-0.2,0-0.4-0.1-0.5c-0.1-0.2-0.2-0.3-0.4-0.4c-0.2-0.1-0.4-0.3-0.8-0.4
		c-0.3-0.1-0.8-0.2-1.3-0.4c-0.6-0.1-1.1-0.3-1.6-0.5c-0.5-0.2-0.9-0.4-1.2-0.6c-0.3-0.3-0.6-0.6-0.7-0.9c-0.2-0.4-0.2-0.8-0.2-1.3
		v0c0-0.5,0.1-0.9,0.3-1.3c0.2-0.4,0.5-0.7,0.8-1c0.3-0.3,0.7-0.5,1.2-0.7c0.5-0.2,1-0.2,1.5-0.2c0.8,0,1.6,0.1,2.2,0.4
		c0.7,0.2,1.3,0.6,1.9,1.1l-1.1,1.5c-0.5-0.4-1-0.7-1.5-0.9c-0.5-0.2-1-0.3-1.5-0.3c-0.6,0-1,0.1-1.3,0.4c-0.3,0.3-0.5,0.6-0.5,0.9
		v0c0,0.2,0,0.4,0.1,0.6c0.1,0.2,0.2,0.3,0.4,0.5c0.2,0.1,0.5,0.3,0.8,0.4c0.4,0.1,0.8,0.2,1.3,0.4c0.6,0.2,1.1,0.3,1.6,0.5
		c0.5,0.2,0.8,0.4,1.1,0.7c0.3,0.3,0.5,0.6,0.7,0.9c0.2,0.3,0.2,0.8,0.2,1.2v0c0,0.5-0.1,1-0.3,1.4c-0.2,0.4-0.5,0.8-0.8,1.1
		c-0.3,0.3-0.8,0.5-1.3,0.7C321.5,363,321,363.1,320.4,363.1L320.4,363.1z M327.5,351.7h2v11.2h-2V351.7L327.5,351.7z M333.2,351.7
		h1.8l6,7.8v-7.8h2v11.2h-1.7l-6.2-8v8h-2V351.7L333.2,351.7z M346.6,351.7h8.3v1.8h-6.4v2.9h5.6v1.8h-5.6v3h6.4v1.8h-8.4V351.7
		L346.6,351.7z M362,363.1c-0.9,0-1.7-0.1-2.5-0.4c-0.8-0.3-1.5-0.7-2.2-1.4l1.2-1.4c0.5,0.5,1.1,0.8,1.7,1.1
		c0.6,0.3,1.2,0.4,1.9,0.4c0.6,0,1.1-0.1,1.5-0.4c0.4-0.3,0.5-0.6,0.5-1v0c0-0.2,0-0.4-0.1-0.5c-0.1-0.2-0.2-0.3-0.4-0.4
		c-0.2-0.1-0.4-0.3-0.8-0.4c-0.3-0.1-0.8-0.2-1.3-0.4c-0.6-0.1-1.1-0.3-1.6-0.5c-0.5-0.2-0.9-0.4-1.2-0.6c-0.3-0.3-0.6-0.6-0.7-0.9
		c-0.2-0.4-0.2-0.8-0.2-1.3v0c0-0.5,0.1-0.9,0.3-1.3c0.2-0.4,0.5-0.7,0.8-1c0.3-0.3,0.7-0.5,1.2-0.7c0.5-0.2,1-0.2,1.5-0.2
		c0.8,0,1.6,0.1,2.2,0.4c0.7,0.2,1.3,0.6,1.9,1.1l-1.1,1.5c-0.5-0.4-1-0.7-1.5-0.9c-0.5-0.2-1-0.3-1.5-0.3c-0.6,0-1,0.1-1.3,0.4
		c-0.3,0.3-0.5,0.6-0.5,0.9v0c0,0.2,0,0.4,0.1,0.6c0.1,0.2,0.2,0.3,0.4,0.5c0.2,0.1,0.5,0.3,0.8,0.4c0.4,0.1,0.8,0.2,1.3,0.4
		c0.6,0.2,1.1,0.3,1.6,0.5c0.5,0.2,0.8,0.4,1.1,0.7c0.3,0.3,0.5,0.6,0.7,0.9c0.2,0.3,0.2,0.8,0.2,1.2v0c0,0.5-0.1,1-0.3,1.4
		c-0.2,0.4-0.5,0.8-0.8,1.1c-0.3,0.3-0.8,0.5-1.3,0.7C363.1,363,362.6,363.1,362,363.1L362,363.1z M373,363.1
		c-0.9,0-1.7-0.1-2.5-0.4c-0.8-0.3-1.5-0.7-2.2-1.4l1.2-1.4c0.5,0.5,1.1,0.8,1.7,1.1c0.6,0.3,1.2,0.4,1.9,0.4c0.6,0,1.1-0.1,1.5-0.4
		c0.4-0.3,0.5-0.6,0.5-1v0c0-0.2,0-0.4-0.1-0.5c-0.1-0.2-0.2-0.3-0.4-0.4c-0.2-0.1-0.4-0.3-0.8-0.4c-0.3-0.1-0.8-0.2-1.3-0.4
		c-0.6-0.1-1.1-0.3-1.6-0.5c-0.5-0.2-0.9-0.4-1.2-0.6c-0.3-0.3-0.6-0.6-0.7-0.9c-0.2-0.4-0.2-0.8-0.2-1.3v0c0-0.5,0.1-0.9,0.3-1.3
		c0.2-0.4,0.5-0.7,0.8-1c0.3-0.3,0.7-0.5,1.2-0.7c0.5-0.2,1-0.2,1.5-0.2c0.8,0,1.6,0.1,2.2,0.4c0.7,0.2,1.3,0.6,1.9,1.1l-1.1,1.5
		c-0.5-0.4-1-0.7-1.5-0.9c-0.5-0.2-1-0.3-1.5-0.3c-0.6,0-1,0.1-1.3,0.4c-0.3,0.3-0.5,0.6-0.5,0.9v0c0,0.2,0,0.4,0.1,0.6
		c0.1,0.2,0.2,0.3,0.4,0.5c0.2,0.1,0.5,0.3,0.8,0.4c0.4,0.1,0.8,0.2,1.3,0.4c0.6,0.2,1.1,0.3,1.6,0.5c0.5,0.2,0.8,0.4,1.1,0.7
		c0.3,0.3,0.5,0.6,0.7,0.9c0.2,0.3,0.2,0.8,0.2,1.2v0c0,0.5-0.1,1-0.3,1.4c-0.2,0.4-0.5,0.8-0.8,1.1c-0.3,0.3-0.8,0.5-1.3,0.7
		C374.1,363,373.6,363.1,373,363.1z"/>
</g>
</svg>
