<?xml version="1.0" encoding="utf-8"?>
<!-- Generator: Adobe Illustrator 18.0.0, SVG Export Plug-In . SVG Version: 6.00 Build 0)  -->
<!DOCTYPE svg PUBLIC "-//W3C//DTD SVG 1.1//EN" "http://www.w3.org/Graphics/SVG/1.1/DTD/svg11.dtd">
<svg version="1.1" id="Layer_1" xmlns="http://www.w3.org/2000/svg" xmlns:xlink="http://www.w3.org/1999/xlink" x="0px" y="0px"
	 viewBox="0 0 498 463.2" enable-background="new 0 0 498 463.2" xml:space="preserve">
<rect x="0" y="0" fill-rule="evenodd" clip-rule="evenodd" fill="#002066" width="498" height="463.1"/>
<g>
	<g>
		<path fill-rule="evenodd" clip-rule="evenodd" fill="#FFFFFF" d="M249,137.7l-26.7,26.7L249,191l26.7-26.7L249,137.7L249,137.7z
			 M249,109.7l54.7,54.7L249,219l-54.7-54.7L249,109.7z"/>
		<path fill-rule="evenodd" clip-rule="evenodd" fill="#FFFFFF" d="M176.7,209.9L150,236.5l26.7,26.7l26.7-26.7L176.7,209.9
			L176.7,209.9z M176.7,181.9l54.7,54.7l-54.7,54.7L122,236.5L176.7,181.9z"/>
		<path fill-rule="evenodd" clip-rule="evenodd" fill="#FFFFFF" d="M321.3,209.9l-26.7,26.7l26.7,26.7l26.7-26.7L321.3,209.9
			L321.3,209.9z M321.3,181.9l54.7,54.7l-54.7,54.7l-54.7-54.7L321.3,181.9z"/>
	</g>
	<g>
		<path fill-rule="evenodd" clip-rule="evenodd" fill="#FFFFFF" d="M52.9,344.5c1.9,0,3.6-0.3,5.1-0.9c1.6-0.6,2.9-1.5,4-2.6
			c1.1-1.1,2-2.4,2.6-3.9c0.6-1.5,0.9-3.2,0.9-5.1v-0.1c0-1.8-0.3-3.5-0.9-5.1c-0.6-1.6-1.5-2.9-2.6-4c-1.1-1.1-2.4-2-4-2.6
			c-1.6-0.6-3.3-0.9-5.1-0.9h-7.1v25.2H52.9L52.9,344.5z M36.6,310.9h16.3c3.3,0,6.3,0.5,9,1.6c2.7,1.1,5.1,2.5,7.1,4.4
			c2,1.9,3.5,4.1,4.6,6.6c1.1,2.5,1.6,5.3,1.6,8.2v0.1c0,2.9-0.5,5.7-1.6,8.2c-1.1,2.6-2.6,4.8-4.6,6.6c-2,1.9-4.3,3.3-7.1,4.4
			c-2.7,1.1-5.7,1.6-9,1.6H36.6V310.9L36.6,310.9z M76.2,310.9H86l8.7,28.3l9.4-28.5h7.9l9.4,28.5l8.7-28.3h9.6l-14.3,42.1h-8
			l-9.4-27.4l-9.4,27.4h-8L76.2,310.9z"/>
		<path fill-rule="evenodd" clip-rule="evenodd" fill="#FFFFFF" d="M184.5,335.3l-5.6-13.6l-5.6,13.6H184.5L184.5,335.3z
			 M174.9,310.6h8.5l17.9,42.1h-9.6l-3.8-9.4h-17.7l-3.8,9.4h-9.4L174.9,310.6L174.9,310.6z M220.1,344.5c1.9,0,3.6-0.3,5.1-0.9
			c1.6-0.6,2.9-1.5,4-2.6c1.1-1.1,2-2.4,2.6-3.9c0.6-1.5,0.9-3.2,0.9-5.1v-0.1c0-1.8-0.3-3.5-0.9-5.1c-0.6-1.6-1.5-2.9-2.6-4
			c-1.1-1.1-2.4-2-4-2.6c-1.6-0.6-3.3-0.9-5.1-0.9H213v25.2H220.1L220.1,344.5z M203.8,310.9h16.3c3.3,0,6.3,0.5,9,1.6
			c2.7,1.1,5.1,2.5,7.1,4.4c2,1.9,3.5,4.1,4.6,6.6c1.1,2.5,1.6,5.3,1.6,8.2v0.1c0,2.9-0.5,5.7-1.6,8.2c-1.1,2.6-2.6,4.8-4.6,6.6
			c-2,1.9-4.3,3.3-7.1,4.4c-2.7,1.1-5.7,1.6-9,1.6h-16.3V310.9L203.8,310.9z M243.1,310.9h10.2l10.9,29.5l10.9-29.5h9.9l-16.9,42.1
			H260L243.1,310.9L243.1,310.9z M288,310.9h9.2v41.8H288V310.9L288,310.9z M318.7,353.4c-3.2,0-6.3-0.5-9.4-1.6
			c-3.1-1.1-5.9-2.8-8.4-5.1l5.4-6.5c1.9,1.6,3.9,2.8,5.9,3.7c2,0.9,4.2,1.4,6.6,1.4c1.9,0,3.4-0.3,4.5-1c1.1-0.7,1.6-1.7,1.6-2.9
			v-0.1c0-0.6-0.1-1.1-0.3-1.6c-0.2-0.5-0.6-0.9-1.3-1.3c-0.6-0.4-1.5-0.8-2.6-1.2c-1.1-0.4-2.5-0.8-4.3-1.3c-2.1-0.5-4-1.1-5.8-1.7
			c-1.7-0.6-3.2-1.4-4.4-2.4c-1.2-0.9-2.1-2.1-2.8-3.5c-0.7-1.4-1-3.1-1-5.2V323c0-1.9,0.4-3.6,1.1-5.2c0.7-1.5,1.7-2.9,3-4
			c1.3-1.1,2.8-2,4.6-2.6c1.8-0.6,3.8-0.9,5.9-0.9c3.1,0,5.9,0.5,8.5,1.4c2.6,0.9,4.9,2.2,7.1,3.9l-4.8,6.9c-1.9-1.3-3.7-2.3-5.5-3
			c-1.8-0.7-3.6-1.1-5.4-1.1c-1.8,0-3.1,0.3-4,1c-0.9,0.7-1.3,1.6-1.3,2.6v0.1c0,0.7,0.1,1.3,0.4,1.8c0.3,0.5,0.7,0.9,1.4,1.3
			c0.7,0.4,1.6,0.8,2.8,1.1c1.2,0.4,2.7,0.8,4.5,1.3c2.1,0.6,4,1.2,5.7,1.9c1.7,0.7,3.1,1.5,4.2,2.5c1.1,1,2,2.1,2.6,3.4
			c0.6,1.3,0.9,2.9,0.9,4.7v0.1c0,2.1-0.4,3.9-1.1,5.5c-0.8,1.6-1.8,3-3.1,4.1c-1.3,1.1-3,1.9-4.8,2.5
			C323.1,353.1,321,353.4,318.7,353.4L318.7,353.4z M358.6,345c1.8,0,3.5-0.3,5.1-1c1.6-0.7,2.9-1.6,4-2.8c1.1-1.2,2-2.6,2.6-4.2
			c0.6-1.6,0.9-3.3,0.9-5.1v-0.1c0-1.8-0.3-3.5-0.9-5.1c-0.6-1.6-1.5-3-2.6-4.2c-1.1-1.2-2.5-2.1-4-2.8c-1.6-0.7-3.2-1-5.1-1
			c-1.9,0-3.6,0.3-5.1,1c-1.5,0.7-2.8,1.6-3.9,2.8c-1.1,1.2-2,2.6-2.6,4.2c-0.6,1.6-0.9,3.3-0.9,5.1v0.1c0,1.8,0.3,3.5,0.9,5.1
			c0.6,1.6,1.5,3,2.6,4.2c1.1,1.2,2.5,2.1,4,2.8C355,344.7,356.7,345,358.6,345L358.6,345z M358.5,353.5c-3.2,0-6.2-0.6-8.9-1.7
			c-2.7-1.1-5.1-2.7-7-4.6c-2-1.9-3.5-4.2-4.6-6.8c-1.1-2.6-1.6-5.4-1.6-8.4v-0.1c0-3,0.6-5.8,1.7-8.4c1.1-2.6,2.7-4.9,4.6-6.9
			c2-2,4.3-3.5,7.1-4.7c2.7-1.1,5.7-1.7,8.9-1.7c3.2,0,6.2,0.6,8.9,1.7c2.7,1.1,5.1,2.7,7,4.6c2,1.9,3.5,4.2,4.6,6.8
			c1.1,2.6,1.6,5.4,1.6,8.4v0.1c0,3-0.6,5.8-1.7,8.4c-1.1,2.6-2.7,4.9-4.6,6.9c-2,2-4.3,3.5-7.1,4.7
			C364.7,352.9,361.7,353.5,358.5,353.5L358.5,353.5z M403.6,331.3c2.3,0,4-0.5,5.2-1.6c1.2-1.1,1.8-2.5,1.8-4.3v-0.1
			c0-2-0.6-3.5-1.9-4.5c-1.3-1-3-1.5-5.3-1.5h-9.1v12H403.6L403.6,331.3z M385,310.9h19.1c5.3,0,9.4,1.4,12.2,4.2
			c2.4,2.4,3.6,5.6,3.6,9.6v0.1c0,3.4-0.8,6.1-2.5,8.3c-1.7,2.1-3.8,3.7-6.5,4.7l10.2,14.9h-10.8l-9-13.4h-0.1h-7.1v13.4H385V310.9
			L385,310.9z M436.1,336.3v16.5h9.2v-16.7l16.1-25.2H451l-10.2,16.8l-10-16.8h-10.8L436.1,336.3z"/>
	</g>
</g>
</svg>
