<?xml version="1.0" encoding="utf-8"?>
<!-- Generator: Adobe Illustrator 18.0.0, SVG Export Plug-In . SVG Version: 6.00 Build 0)  -->
<!DOCTYPE svg PUBLIC "-//W3C//DTD SVG 1.1//EN" "http://www.w3.org/Graphics/SVG/1.1/DTD/svg11.dtd">
<svg version="1.1" id="Layer_1" xmlns="http://www.w3.org/2000/svg" xmlns:xlink="http://www.w3.org/1999/xlink" x="0px" y="0px"
	 viewBox="0 0 498 463.1" enable-background="new 0 0 498 463.1" xml:space="preserve">
<rect x="0" y="0" fill-rule="evenodd" clip-rule="evenodd" fill="#002066" width="498" height="463.1"/>
<g>
	<path fill-rule="evenodd" clip-rule="evenodd" fill="#FFFFFF" d="M249,168.8l-26.7,26.7l26.7,26.7l26.7-26.7L249,168.8L249,168.8z
		 M249,140.8l54.7,54.7L249,250.1l-54.7-54.7L249,140.8z"/>
	<path fill-rule="evenodd" clip-rule="evenodd" fill="#FFFFFF" d="M176.7,240.9L150,267.6l26.7,26.7l26.7-26.7L176.7,240.9
		L176.7,240.9z M176.7,212.9l54.7,54.7l-54.7,54.7L122,267.6L176.7,212.9z"/>
	<path fill-rule="evenodd" clip-rule="evenodd" fill="#FFFFFF" d="M321.3,240.9l-26.7,26.7l26.7,26.7l26.7-26.7L321.3,240.9
		L321.3,240.9z M321.3,212.9l54.7,54.7l-54.7,54.7l-54.7-54.7L321.3,212.9z"/>
</g>
</svg>
