<?xml version="1.0" encoding="utf-8"?>
<!-- Generator: Adobe Illustrator 18.0.0, SVG Export Plug-In . SVG Version: 6.00 Build 0)  -->
<!DOCTYPE svg PUBLIC "-//W3C//DTD SVG 1.1//EN" "http://www.w3.org/Graphics/SVG/1.1/DTD/svg11.dtd">
<svg version="1.1" id="Layer_1" xmlns="http://www.w3.org/2000/svg" xmlns:xlink="http://www.w3.org/1999/xlink" x="0px" y="0px"
	 viewBox="0 0 498 149.3" enable-background="new 0 0 498 149.3" xml:space="preserve">
<path fill-rule="evenodd" clip-rule="evenodd" fill="#002066" d="M52.9,87.2c1.9,0,3.6-0.3,5.1-0.9c1.6-0.6,2.9-1.5,4-2.6
	c1.1-1.1,2-2.4,2.6-3.9c0.6-1.5,0.9-3.2,0.9-5.1v-0.1c0-1.8-0.3-3.5-0.9-5.1c-0.6-1.6-1.5-2.9-2.6-4c-1.1-1.1-2.4-2-4-2.6
	c-1.6-0.6-3.3-0.9-5.1-0.9h-7.1v25.2H52.9L52.9,87.2z M36.6,53.7h16.3c3.3,0,6.3,0.5,9,1.6c2.7,1.1,5.1,2.5,7.1,4.4
	c2,1.9,3.5,4.1,4.6,6.6c1.1,2.5,1.6,5.3,1.6,8.2v0.1c0,2.9-0.5,5.7-1.6,8.2c-1.1,2.6-2.6,4.8-4.6,6.6c-2,1.9-4.3,3.3-7.1,4.4
	c-2.7,1.1-5.7,1.6-9,1.6H36.6V53.7L36.6,53.7z M76.2,53.7H86L94.7,82l9.4-28.5h7.9l9.4,28.5l8.7-28.3h9.6l-14.3,42.1h-8l-9.4-27.4
	l-9.4,27.4h-8L76.2,53.7L76.2,53.7z M184.5,78L179,64.5L173.4,78H184.5L184.5,78z M174.9,53.4h8.5l17.9,42.1h-9.6l-3.8-9.4h-17.7
	l-3.8,9.4h-9.4L174.9,53.4L174.9,53.4z M220.1,87.2c1.9,0,3.6-0.3,5.1-0.9c1.6-0.6,2.9-1.5,4-2.6c1.1-1.1,2-2.4,2.6-3.9
	c0.6-1.5,0.9-3.2,0.9-5.1v-0.1c0-1.8-0.3-3.5-0.9-5.1c-0.6-1.6-1.5-2.9-2.6-4c-1.1-1.1-2.4-2-4-2.6c-1.6-0.6-3.3-0.9-5.1-0.9H213
	v25.2H220.1L220.1,87.2z M203.8,53.7h16.3c3.3,0,6.3,0.5,9,1.6c2.7,1.1,5.1,2.5,7.1,4.4c2,1.9,3.5,4.1,4.6,6.6
	c1.1,2.5,1.6,5.3,1.6,8.2v0.1c0,2.9-0.5,5.7-1.6,8.2c-1.1,2.6-2.6,4.8-4.6,6.6c-2,1.9-4.3,3.3-7.1,4.4c-2.7,1.1-5.7,1.6-9,1.6h-16.3
	V53.7L203.8,53.7z M243.1,53.7h10.2l10.9,29.5l10.9-29.5h9.9l-16.9,42.1H260L243.1,53.7L243.1,53.7z M288,53.7h9.2v41.8H288V53.7
	L288,53.7z M318.7,96.1c-3.2,0-6.3-0.5-9.4-1.6c-3.1-1.1-5.9-2.8-8.4-5.1l5.4-6.5c1.9,1.6,3.9,2.8,5.9,3.7c2,0.9,4.2,1.4,6.6,1.4
	c1.9,0,3.4-0.3,4.5-1c1.1-0.7,1.6-1.7,1.6-2.9V84c0-0.6-0.1-1.1-0.3-1.6c-0.2-0.5-0.6-0.9-1.3-1.3c-0.6-0.4-1.5-0.8-2.6-1.2
	c-1.1-0.4-2.5-0.8-4.3-1.3c-2.1-0.5-4-1.1-5.8-1.7c-1.7-0.6-3.2-1.4-4.4-2.4c-1.2-0.9-2.1-2.1-2.8-3.5c-0.7-1.4-1-3.1-1-5.2v-0.1
	c0-1.9,0.4-3.6,1.1-5.2c0.7-1.5,1.7-2.9,3-4c1.3-1.1,2.8-2,4.6-2.6c1.8-0.6,3.8-0.9,5.9-0.9c3.1,0,5.9,0.5,8.5,1.4
	c2.6,0.9,4.9,2.2,7.1,3.9l-4.8,6.9c-1.9-1.3-3.7-2.3-5.5-3c-1.8-0.7-3.6-1.1-5.4-1.1c-1.8,0-3.1,0.3-4,1c-0.9,0.7-1.3,1.6-1.3,2.6
	V65c0,0.7,0.1,1.3,0.4,1.8c0.3,0.5,0.7,0.9,1.4,1.3c0.7,0.4,1.6,0.8,2.8,1.1c1.2,0.4,2.7,0.8,4.5,1.3c2.1,0.6,4,1.2,5.7,1.9
	c1.7,0.7,3.1,1.5,4.2,2.5c1.1,1,2,2.1,2.6,3.4c0.6,1.3,0.9,2.9,0.9,4.7v0.1c0,2.1-0.4,3.9-1.1,5.5c-0.8,1.6-1.8,3-3.1,4.1
	c-1.3,1.1-3,1.9-4.8,2.5C323.1,95.9,321,96.1,318.7,96.1L318.7,96.1z M358.6,87.8c1.8,0,3.5-0.3,5.1-1c1.6-0.7,2.9-1.6,4-2.8
	c1.1-1.2,2-2.6,2.6-4.2c0.6-1.6,0.9-3.3,0.9-5.1v-0.1c0-1.8-0.3-3.5-0.9-5.1s-1.5-3-2.6-4.2c-1.1-1.2-2.5-2.1-4-2.8
	c-1.6-0.7-3.2-1-5.1-1c-1.9,0-3.6,0.3-5.1,1c-1.5,0.7-2.8,1.6-3.9,2.8c-1.1,1.2-2,2.6-2.6,4.2c-0.6,1.6-0.9,3.3-0.9,5.1v0.1
	c0,1.8,0.3,3.5,0.9,5.1c0.6,1.6,1.5,3,2.6,4.2c1.1,1.2,2.5,2.1,4,2.8C355,87.4,356.7,87.8,358.6,87.8L358.6,87.8z M358.5,96.3
	c-3.2,0-6.2-0.6-8.9-1.7c-2.7-1.1-5.1-2.7-7-4.6c-2-1.9-3.5-4.2-4.6-6.8c-1.1-2.6-1.6-5.4-1.6-8.4v-0.1c0-3,0.6-5.8,1.7-8.4
	c1.1-2.6,2.7-4.9,4.6-6.9c2-2,4.3-3.5,7.1-4.7c2.7-1.1,5.7-1.7,8.9-1.7c3.2,0,6.2,0.6,8.9,1.7c2.7,1.1,5.1,2.7,7,4.6
	c2,1.9,3.5,4.2,4.6,6.8c1.1,2.6,1.6,5.4,1.6,8.4v0.1c0,3-0.6,5.8-1.7,8.4c-1.1,2.6-2.7,4.9-4.6,6.9c-2,2-4.3,3.5-7.1,4.7
	C364.7,95.7,361.7,96.3,358.5,96.3L358.5,96.3z M403.6,74c2.3,0,4-0.5,5.2-1.6c1.2-1.1,1.8-2.5,1.8-4.3V68c0-2-0.6-3.5-1.9-4.5
	c-1.3-1-3-1.5-5.3-1.5h-9.1v12H403.6L403.6,74z M385,53.7h19.1c5.3,0,9.4,1.4,12.2,4.2c2.4,2.4,3.6,5.6,3.6,9.6v0.1
	c0,3.4-0.8,6.1-2.5,8.3c-1.7,2.1-3.8,3.7-6.5,4.7l10.2,14.9h-10.8l-9-13.4h-0.1h-7.1v13.4H385V53.7L385,53.7z M436.1,79.1v16.5h9.2
	V78.9l16.1-25.2H451l-10.2,16.8l-10-16.8h-10.8L436.1,79.1z"/>
</svg>
